<svg width="512" height="512" viewBox="0 0 512 512" fill="none" xmlns="http://www.w3.org/2000/svg">
<path d="M511.394 262.812L483.202 234.408L404.661 268.841L418.757 283.043L197.368 385.064L186.54 374.155L176.858 378.595L187.678 389.497L154.811 404.647L168.386 418.324L338.459 341.256L355.62 358.545L393.381 341.228L376.276 323.995L511.394 262.812Z" fill="#585858" fill-opacity="0.5"/>
<path d="M231.42 279.874L284.134 163.023L304.345 183.386L323.103 144.084L302.181 123.004L324.199 74.2111L311.927 61.8473L207.515 290.483L231.42 279.874Z" fill="#585858" fill-opacity="0.5"/>
<path d="M207.515 290.483L194.889 318.134L278.397 280.743L295.818 298.295L333.579 280.977L316.433 263.702L452.057 203.03L424.548 175.315L346.095 209.281L359.669 222.957L207.515 290.483Z" fill="#585858" fill-opacity="0.5"/>
<path d="M150.603 312.396L156.02 300.819L147.545 292.281L162.934 259.522L156.982 253.524L226.923 103.963L247.867 125.064L266.301 85.4356L245.237 64.2142L267.349 16.9346L250.541 0L155.186 206.29L161.286 212.436L131.47 276.085L140.205 284.886L134.788 296.462L126.25 287.86L118.124 305.224L109.755 296.807L105.235 306.435L113.583 314.831L98.2153 347.626L114.129 363.659L142.184 303.914L150.603 312.396Z" fill="#585858" fill-opacity="0.5"/>
<path d="M483.202 234.408L452.057 203.03L316.433 263.702L333.579 280.977L295.818 298.295L278.397 280.743L194.889 318.134L311.927 61.8473L267.349 16.9346L245.237 64.2142L266.301 85.4356L247.867 125.064L226.923 103.963L156.982 253.524L162.934 259.522L147.545 292.281L156.02 300.819L150.603 312.396L142.184 303.914L114.129 363.659L154.811 404.647L187.678 389.497L176.858 378.595L186.54 374.155L197.368 385.064L418.757 283.043L404.661 268.841L483.202 234.408Z" fill="#585858" fill-opacity="0.5"/>
</svg>
