<svg width="765" height="223" viewBox="0 0 765 223" fill="none" xmlns="http://www.w3.org/2000/svg">
<g clip-path="url(#clip0)">
<path d="M441.659 47.6856L437.991 44.0175L423.318 58.6899L427.964 77.2751L432.806 76.1013L428.82 60.524L441.659 47.6856ZM450.218 36.6812C438.064 24.5276 418.354 24.5276 406.2 36.6812C394.047 48.8349 394.022 68.5205 406.2 80.6986C418.354 92.8523 438.064 92.8523 450.218 80.6986C462.371 68.545 462.371 48.8349 450.218 36.6812ZM411.091 75.8078C401.627 66.3441 401.627 51.0358 411.091 41.5721C420.555 32.1083 435.863 32.1083 445.327 41.5721C454.791 51.0358 454.791 66.3441 445.327 75.8078C435.863 85.2716 420.555 85.2716 411.091 75.8078Z" fill="#F2F2F2"/>
</g>
<g clip-path="url(#clip1)">
<path d="M157.551 160.39C161.244 152.687 159.899 143.174 153.516 136.792C145.422 128.697 132.266 128.697 124.171 136.792C116.077 144.886 116.077 158.042 124.171 166.137C130.554 172.519 140.066 173.864 147.769 170.172L158.407 180.809L148.625 190.591L158.407 200.372L168.189 190.591L173.08 195.482L182.861 185.7L157.551 160.39ZM133.953 156.355C131.263 153.665 131.263 149.263 133.953 146.573C136.643 143.883 141.045 143.883 143.735 146.573C146.425 149.263 146.425 153.665 143.735 156.355C141.045 159.045 136.643 159.045 133.953 156.355Z" fill="#F2F2F2"/>
</g>
<g clip-path="url(#clip2)">
<mask id="mask0" mask-type="alpha" maskUnits="userSpaceOnUse" x="305" y="133" width="62" height="62">
<path d="M308.562 149.746C308.452 149.827 308.316 149.827 308.228 149.738C308.139 149.65 308.139 149.514 308.223 149.403L310.234 146.771L312.905 144.721C313.016 144.636 313.152 144.636 313.241 144.725C313.329 144.813 313.329 144.949 313.245 145.062L311.252 147.794L308.562 149.746ZM308.732 152.736C308.616 152.822 308.472 152.82 308.382 152.729C308.294 152.641 308.287 152.494 308.376 152.381L311.693 148.229L315.929 144.828C316.04 144.743 316.189 144.746 316.277 144.834C316.368 144.924 316.369 145.069 316.284 145.184L312.941 149.477L308.732 152.736ZM309.804 155.074C309.671 155.183 309.494 155.178 309.384 155.069C309.271 154.956 309.268 154.78 309.379 154.648L313.346 149.888L318.272 145.755C318.405 145.642 318.583 145.644 318.696 145.757C318.805 145.867 318.808 146.045 318.698 146.181L314.618 151.159L309.804 155.074ZM311.388 156.934C311.236 157.061 311.022 157.057 310.893 156.928C310.761 156.796 310.758 156.582 310.886 156.432L315.014 151.556L320.042 147.276C320.193 147.147 320.407 147.15 320.539 147.282C320.668 147.411 320.672 147.625 320.544 147.778L316.314 152.856L311.388 156.934ZM313.083 158.702C312.913 158.855 312.667 158.849 312.518 158.699C312.364 158.546 312.362 158.304 312.513 158.132L316.698 153.239L321.37 149.275C321.541 149.126 321.782 149.127 321.936 149.281C322.088 149.433 322.092 149.676 321.942 149.843L318.023 154.564L313.083 158.702ZM314.829 160.453L314.831 160.45C314.642 160.619 314.359 160.618 314.189 160.448C314.018 160.277 314.018 159.993 314.183 159.807L318.392 154.938L325.747 148.244C325.936 148.075 326.219 148.075 326.39 148.246C326.561 148.417 326.561 148.701 326.395 148.887L319.742 156.288L314.829 160.453ZM316.567 162.185L316.569 162.183C316.361 162.37 316.047 162.371 315.854 162.178C315.664 161.988 315.664 161.673 315.853 161.466L320.05 156.645L328.994 148.325C329.201 148.136 329.514 148.137 329.704 148.327C329.898 148.52 329.898 148.833 329.711 149.041L321.43 158.024L316.567 162.185ZM318.436 163.916L318.439 163.913C318.211 164.126 317.867 164.123 317.654 163.911C317.441 163.698 317.439 163.353 317.648 163.128L321.823 158.375C321.823 158.375 331.463 149.313 331.466 149.311C331.692 149.102 332.038 149.1 332.251 149.313C332.464 149.526 332.464 149.874 332.253 150.099L323.227 159.779L318.436 163.916ZM320.256 165.676C320.008 165.907 319.632 165.907 319.398 165.673C319.164 165.439 319.164 165.063 319.393 164.817L323.56 160.11L333.496 150.714C333.745 150.482 334.12 150.483 334.354 150.717C334.588 150.951 334.589 151.326 334.356 151.575L324.99 161.54L320.256 165.676ZM322.096 167.437L322.098 167.435C321.831 167.685 321.423 167.688 321.166 167.432C320.913 167.178 320.912 166.766 321.164 166.505L325.31 161.863L334.975 152.689C335.244 152.434 335.654 152.437 335.907 152.691C336.164 152.947 336.164 153.353 335.909 153.624L326.769 163.321L322.096 167.437ZM323.938 169.227L323.941 169.223C323.655 169.501 323.215 169.495 322.94 169.22C322.663 168.943 322.66 168.506 322.93 168.219L327.075 163.627L336.374 154.777C336.664 154.504 337.104 154.503 337.381 154.78C337.656 155.056 337.659 155.499 337.381 155.784L328.558 165.115L323.938 169.227ZM326.251 170.618L325.8 171.024C325.649 171.17 325.451 171.242 325.258 171.244C325.064 171.241 324.868 171.168 324.725 171.025C324.559 170.858 324.488 170.636 324.508 170.415C324.521 170.253 324.588 170.094 324.702 169.97C324.706 169.963 324.712 169.957 324.72 169.949C324.72 169.949 328.847 165.408 328.855 165.401L339.753 154.911L339.858 154.811C340.047 154.626 340.313 154.558 340.557 154.611C340.696 154.639 340.826 154.705 340.936 154.814C341.044 154.922 341.113 155.058 341.139 155.202C341.187 155.444 341.119 155.701 340.935 155.89L330.361 166.918L326.251 170.618ZM327.679 172.79L327.684 172.785C327.364 173.097 326.848 173.096 326.535 172.783C326.221 172.469 326.22 171.953 326.531 171.637L328.52 169.41L330.568 167.129L342.524 155.643L342.583 155.584C342.761 155.407 343.004 155.332 343.241 155.354C343.421 155.371 343.597 155.449 343.733 155.585C343.841 155.694 343.912 155.824 343.947 155.96C344.008 156.226 343.942 156.522 343.739 156.735L332.212 168.772L327.679 172.79ZM342.653 188.923C342.653 188.923 328.172 174.442 328.156 174.427C327.876 174.082 327.877 173.586 328.193 173.26L344.787 156.665C345.098 156.365 345.361 156.313 345.905 156.555C347.314 157.177 348.696 158.094 349.878 159.276C354.698 164.096 354.95 171.744 350.659 176.874C351.538 177.235 352.371 177.773 353.087 178.489C355.973 181.375 355.972 186.057 353.084 188.946C350.196 191.834 345.539 191.81 342.653 188.923Z" fill="#F2F2F2"/>
</mask>
<g mask="url(#mask0)">
<path d="M306.484 193.035C322.691 209.242 348.967 209.242 365.174 193.035C381.381 176.828 381.381 150.552 365.174 134.345C348.967 118.138 322.691 118.138 306.484 134.345C290.277 150.552 290.277 176.828 306.484 193.035Z" fill="#F2F2F2"/>
</g>
</g>
<g clip-path="url(#clip3)">
<path d="M96.6101 55.0807L62.2985 20.7691C55.5666 14.0373 44.6521 14.0373 37.9202 20.7691L20.7681 37.9213C14.0362 44.6532 14.0362 55.5677 20.7681 62.2996L55.0797 96.6112C61.8116 103.343 72.7261 103.343 79.4579 96.6112L96.6101 79.459C103.342 72.7271 103.342 61.8126 96.6101 55.0807ZM66.767 68.437L43.0641 60.0426C42.4325 59.8189 42.2503 59.0132 42.724 58.5395L58.5109 42.7526C58.9914 42.2721 59.8097 42.4677 60.0211 43.1134L67.9371 67.2947C68.1724 68.0136 67.4799 68.6896 66.767 68.437Z" fill="#F2F2F2"/>
</g>
<g clip-path="url(#clip4)">
<path d="M655.528 59.6966L650.828 54.9967L637.716 60.8129L640.055 63.1522L603.372 80.2239L601.57 78.4222L599.95 79.1734L601.754 80.9775L601.819 80.9458L601.754 80.9775L596.314 83.5094L598.569 85.7643L626.792 72.8466L629.654 75.7083L635.859 72.8349L633.021 69.9967L655.528 59.6966Z" fill="#F2F2F2"/>
<path d="M608.95 62.7658L617.704 43.1681L621.079 46.5428L624.192 39.9601L620.698 36.4657L624.28 28.4487L622.241 26.4098L605 64.5371L608.95 62.7658Z" fill="#F2F2F2"/>
<path d="M605 64.5362L602.925 69.1246L616.797 62.8518L619.689 65.7429L625.893 62.8694L623.049 60.0253L645.64 49.8086L641.045 45.2132L627.932 51.0293L630.161 53.2584L605 64.5362Z" fill="#F2F2F2"/>
<path d="M595.541 68.2527L596.507 66.1692L595.091 64.7536L597.54 59.4903L596.532 58.482L608.081 33.5447L611.586 37.0497L614.643 30.4119L611.149 26.9175L614.821 18.9897L612.029 16.1984L596.327 50.5026L597.345 51.5203L592.436 62.0985L593.871 63.5329L592.906 65.6175L591.47 64.182L590.158 67.0108L588.771 65.6258L588.017 67.2433L589.407 68.6307L586.88 74.0759L589.525 76.7217L594.124 66.8359L595.541 68.2527Z" fill="#F2F2F2"/>
<path d="M650.827 54.9953L645.64 49.8083L623.049 60.025L625.893 62.8691L619.688 65.7426L616.797 62.8515L602.925 69.1243L622.24 26.4086L614.82 18.9891L611.149 26.9169L614.643 30.4113L611.585 37.0491L608.08 33.5442L596.531 58.4815L597.54 59.4897L595.091 64.7531L596.507 66.1687L595.541 68.2521L594.124 66.8354L589.525 76.7211L596.312 83.508L601.817 80.9444L601.752 80.9761L599.948 79.172L601.568 78.4207L603.37 80.2225L640.053 63.1508L637.714 60.8115L650.827 54.9953Z" fill="#F2F2F2"/>
</g>
<g clip-path="url(#clip5)">
<path d="M734.694 134.345C718.487 118.138 692.21 118.138 676.004 134.345C659.797 150.552 659.797 176.828 676.004 193.035C692.21 209.242 718.487 209.242 734.694 193.035C750.9 176.828 750.9 150.552 734.694 134.345ZM704.877 189.704C703.866 189.969 702.838 189.654 702.148 188.964C701.804 188.62 701.545 188.183 701.412 187.679C699.221 179.324 693.624 172.736 689.314 168.681C684.539 164.188 680.227 161.705 680.184 161.68C678.824 160.904 678.348 159.172 679.123 157.811C679.898 156.45 681.628 155.973 682.99 156.747C683.185 156.858 687.835 159.521 693.087 164.438C696.181 167.334 698.856 170.426 701.036 173.627C703.797 177.681 705.771 181.924 706.902 186.239C707.3 187.755 706.393 189.306 704.877 189.704ZM716.356 185.686C715.158 186.001 713.941 185.627 713.124 184.81C712.716 184.402 712.409 183.885 712.252 183.287C709.656 173.391 703.026 165.588 697.921 160.784C692.265 155.462 687.157 152.521 687.106 152.492C685.496 151.572 684.932 149.52 685.85 147.908C686.768 146.296 688.817 145.732 690.43 146.648C690.661 146.779 696.169 149.934 702.39 155.758C706.055 159.189 709.223 162.852 711.806 166.643C715.076 171.445 717.414 176.471 718.755 181.582C719.226 183.378 718.152 185.215 716.356 185.686ZM725.695 180.934C725.195 180.435 724.817 179.8 724.625 179.067C718.454 155.539 694.031 141.435 693.785 141.295C691.805 140.17 691.111 137.653 692.236 135.673C693.361 133.693 695.878 133 697.858 134.125C698.142 134.286 704.897 138.155 712.529 145.3C717.024 149.509 720.91 154.001 724.078 158.651C728.09 164.542 730.958 170.707 732.602 176.975C733.18 179.178 731.862 181.432 729.66 182.009C728.19 182.395 726.697 181.937 725.695 180.934Z" fill="#F2F2F2"/>
</g>
<g clip-path="url(#clip6)">
<path d="M228.777 29.3449L214.104 44.0174L223.886 53.799L223.886 78.2531L263.012 39.1265L238.558 39.1265L228.777 29.3449ZM254.454 69.6942C258.782 65.3658 260.005 59.1544 258.195 53.7256L238.509 73.4112C243.914 75.2453 250.125 74.0225 254.454 69.6942ZM269.786 42.1344L264.749 47.1719C269.713 56.3422 268.319 68.0557 260.567 75.8077C252.815 83.5597 241.102 84.9535 231.931 79.9893L226.894 85.0269C238.925 92.6077 254.992 91.1649 265.458 80.6985C275.924 70.2322 277.367 54.1658 269.786 42.1344V42.1344Z" fill="#F2F2F2"/>
</g>
<g clip-path="url(#clip7)">
<path d="M542.598 156.353L513.253 127.009L508.362 131.899L537.707 161.244L542.598 156.353ZM532.816 166.135L503.471 136.79L498.58 141.681L527.925 171.026L532.816 166.135ZM488.799 151.463L508.362 171.026L513.253 166.135L493.69 146.572L488.799 151.463ZM547.489 161.244L527.485 181.248C526.996 180.221 526.336 179.218 525.48 178.362C521.421 174.303 514.867 174.303 510.808 178.362C506.748 182.422 506.748 188.975 510.808 193.035C514.867 197.094 521.421 197.094 525.48 193.035L547.489 171.026L554.825 178.362L559.716 173.471L547.489 161.244Z" fill="#F2F2F2"/>
</g>
<defs>
<clipPath id="clip0">
<rect width="83" height="83" fill="white" transform="translate(428.209) rotate(45)"/>
</clipPath>
<clipPath id="clip1">
<rect width="83" height="83" fill="white" transform="translate(151.069 105) rotate(45)"/>
</clipPath>
<clipPath id="clip2">
<rect width="83" height="83" fill="white" transform="translate(335.829 105) rotate(45)"/>
</clipPath>
<clipPath id="clip3">
<rect width="83" height="83" fill="white" transform="translate(58.6895) rotate(45)"/>
</clipPath>
<clipPath id="clip4">
<rect width="83" height="83" fill="white" transform="translate(612.969) rotate(45)"/>
</clipPath>
<clipPath id="clip5">
<rect width="83" height="83" fill="white" transform="translate(705.349 105) rotate(45)"/>
</clipPath>
<clipPath id="clip6">
<rect width="83" height="83" fill="white" transform="translate(243.449) rotate(45)"/>
</clipPath>
<clipPath id="clip7">
<rect width="83" height="83" fill="white" transform="translate(520.589 105) rotate(45)"/>
</clipPath>
</defs>
</svg>
